<svg width="46" height="20" xmlns="http://www.w3.org/2000/svg"><g fill="#FFF"><path d="M29.648 9.201 43.728 0H18.024zm-16.325 8.475L23.93 7.444 15.712.934zM45.952 1.14 35.477 7.985l8.064 10.037z"/><path d="m33.637 9.18-3.452 2.257a1.12 1.12 0 0 1-.602.184 1.06 1.06 0 0 1-.68-.239L25.65 8.8 14.53 19.53h27.435L33.637 9.18Zm-31.95 6.662c-.602 0-1.095.488-1.095 1.085s.493 1.085 1.095 1.085H5.03c.603 0 1.096-.488 1.096-1.085s-.493-1.085-1.096-1.085H1.687ZM7.91 9.766c0-.597-.492-1.085-1.095-1.085H1.479c-.602 0-1.096.488-1.096 1.085 0 .596.494 1.085 1.096 1.085h5.336c.603 0 1.096-.489 1.096-1.085ZM1.161 3.69h7.32c.602 0 1.095-.489 1.095-1.086 0-.597-.493-1.085-1.096-1.085H1.161C.56 1.52.066 2.007.066 2.604S.559 3.69 1.16 3.69Z"/></g></svg>