<svg width="20" height="20" xmlns="http://www.w3.org/2000/svg"><path d="M17.078 2.928A9.928 9.928 0 0 0 10.01 0C4.505 0 .024 4.479.022 9.985a9.962 9.962 0 0 0 1.333 4.992L0 20l5.233-1.237a9.981 9.981 0 0 0 4.773 1.216h.004c5.506 0 9.987-4.48 9.99-9.985a9.921 9.921 0 0 0-2.922-7.066Zm-2.18 10.626c-.207.583-1.226 1.145-1.684 1.186-.458.042-.887.207-2.995-.624-2.538-1-4.14-3.601-4.264-3.767-.125-.167-1.019-1.353-1.019-2.581s.645-1.832.874-2.081a.916.916 0 0 1 .666-.312c.166 0 .333 0 .478.006.178.007.375.016.562.431.222.494.707 1.728.77 1.853.061.125.103.271.02.437-.083.166-.125.27-.249.416-.125.146-.262.325-.374.437-.125.124-.255.26-.11.509.146.25.646 1.067 1.388 1.728.954.85 1.758 1.113 2.008 1.239.25.125.395.104.54-.063.147-.166.625-.728.79-.978.167-.25.334-.208.563-.125.229.083 1.456.687 1.705.812.25.125.416.187.478.291.062.103.062.603-.146 1.186Z"/></svg>