<svg xmlns="http://www.w3.org/2000/svg" viewBox="0 0 284.05 120.56"><path d="M272.59 0h11.46v120.56h-11.46zM36.26 5.53 0 5.29v25.24h4.21l8.29-20.29 13.85-.13v76.72l-12 1.24.25 4.08 21.28-.25 21.04.25.37-4.08-11.88-1.24V10.11l13.74.13 8.41 20.29h4.08V5.29l-35.38.24zm57.11 17.2-2.1-6.68v70.78l8.91 1.23-.12 4.09-11.76-.25-11.51.25-.37-4.09 8.79-1.23v-76.1l-8.66-1.49.37-3.95 10.14.24 16.58-.24 38.98 54.56 2.23 6.07V10.48l-8.91-1.24.12-3.95 11.63.24 11.51-.24.37 3.95-8.66 1.24v82.04h-9.28L93.37 22.73zm72.22 65.33 8.79-1.23V10.48l-8.79-1.24.37-3.95 17.82.24 17.32-.24.37 3.95-8.04 1.24v34.03h32.42V10.48l-8.16-1.24.24-3.95 17.45.24 17.69-.24.37 3.95-8.53 1.24v76.35l8.53 1.23-.37 4.09-17.69-.25-17.45.25-.24-4.09 8.16-1.23V49.71h-32.42v37.12l8.04 1.23-.37 4.09-17.32-.25-17.82.25-.37-4.09z" style="fill:#fff"/></svg>